<?xml version="1.0" encoding="UTF-8"?>
<svg xmlns="http://www.w3.org/2000/svg" xmlns:xlink="http://www.w3.org/1999/xlink" width="48px" height="48px" viewBox="0 0 24 24" version="1.1">
<g id="surface1">
<path style=" stroke:none;fill-rule:nonzero;fill:rgb(0%,0%,0%);fill-opacity:1;" d="M 15.726562 13.523438 L 14.625 12.425781 C 15.058594 11.242188 14.832031 10.257812 13.949219 9.476562 C 13.066406 8.691406 12.109375 8.492188 11.074219 8.875 L 9.976562 7.773438 C 10.257812 7.589844 10.574219 7.457031 10.925781 7.375 C 11.273438 7.292969 11.632812 7.25 12 7.25 C 13.183594 7.25 14.1875 7.664062 15.011719 8.488281 C 15.835938 9.3125 16.25 10.316406 16.25 11.5 C 16.25 11.867188 16.203125 12.230469 16.113281 12.585938 C 16.019531 12.945312 15.890625 13.257812 15.726562 13.523438 Z M 18.949219 16.75 L 17.949219 15.75 C 18.765625 15.148438 19.480469 14.480469 20.085938 13.738281 C 20.695312 12.996094 21.140625 12.25 21.425781 11.5 C 20.589844 9.648438 19.339844 8.1875 17.675781 7.113281 C 16.007812 6.039062 14.199219 5.5 12.25 5.5 C 11.550781 5.5 10.832031 5.566406 10.101562 5.699219 C 9.367188 5.832031 8.792969 5.992188 8.375 6.175781 L 7.226562 5 C 7.808594 4.734375 8.554688 4.5 9.460938 4.300781 C 10.371094 4.101562 11.257812 4 12.125 4 C 14.507812 4 16.6875 4.679688 18.664062 6.039062 C 20.636719 7.394531 22.082031 9.214844 23 11.5 C 22.566406 12.566406 22.007812 13.542969 21.324219 14.425781 C 20.640625 15.308594 19.851562 16.082031 18.949219 16.75 Z M 20.398438 22.398438 L 16.199219 18.273438 C 15.617188 18.507812 14.957031 18.6875 14.226562 18.8125 C 13.492188 18.9375 12.75 19 12 19 C 9.566406 19 7.359375 18.320312 5.375 16.960938 C 3.390625 15.605469 1.933594 13.785156 1 11.5 C 1.332031 10.632812 1.796875 9.789062 2.386719 8.960938 C 2.980469 8.136719 3.699219 7.351562 4.550781 6.601562 L 1.398438 3.449219 L 2.449219 2.375 L 21.375 21.300781 Z M 5.574219 7.648438 C 4.957031 8.101562 4.363281 8.691406 3.789062 9.425781 C 3.210938 10.160156 2.800781 10.851562 2.550781 11.5 C 3.398438 13.351562 4.679688 14.8125 6.386719 15.886719 C 8.097656 16.960938 10.035156 17.5 12.199219 17.5 C 12.75 17.5 13.292969 17.464844 13.824219 17.398438 C 14.359375 17.332031 14.757812 17.234375 15.023438 17.101562 L 13.425781 15.5 C 13.242188 15.582031 13.015625 15.644531 12.75 15.6875 C 12.484375 15.730469 12.234375 15.75 12 15.75 C 10.832031 15.75 9.832031 15.339844 9 14.523438 C 8.167969 13.707031 7.75 12.699219 7.75 11.5 C 7.75 11.25 7.769531 11 7.8125 10.75 C 7.855469 10.5 7.917969 10.273438 8 10.074219 Z M 13.199219 11.199219 Z M 10.300781 12.648438 Z M 10.300781 12.648438 "/>
</g>
</svg>
